<svg xmlns="http://www.w3.org/2000/svg" xmlns:xlink="http://www.w3.org/1999/xlink" width="62.284" height="92.811" viewBox="0 0 62.284 92.811">
  <defs>
    <linearGradient id="linear-gradient" x1="0.5" y1="1" x2="0.5" gradientUnits="objectBoundingBox">
      <stop offset="0" stop-color="gray" stop-opacity="0.251"/>
      <stop offset="0.535" stop-color="gray" stop-opacity="0.122"/>
      <stop offset="1" stop-color="gray" stop-opacity="0.102"/>
    </linearGradient>
  </defs>
  <g id="Group_1244" data-name="Group 1244" transform="translate(732.842 1358)">
    <g id="Group_1242" data-name="Group 1242" transform="translate(-728.132 -1358)" opacity="0.7">
      <path id="Path_1282" data-name="Path 1282" d="M474.215,178.592c-1.57-5.7-10.469-9.858-17.165-10.781,0-.042,0-.084,0-.126v-4.877l.022-.007v-.185a16.726,16.726,0,0,0,10.1-10.588,18.078,18.078,0,0,0,1.078-2.324c.715-.26,1.255-1.439,1.255-2.855a4.986,4.986,0,0,0-.2-1.432,18.316,18.316,0,0,0,.134-2.174,18.119,18.119,0,0,0-5.985-13.476,3.539,3.539,0,0,0,.057-.886c-.151-2.341-2.652-3.931-5-4.038a4.945,4.945,0,0,0,.834-5.222c-1.494,2.177-4.562,2.408-7.2,2.425A2.16,2.16,0,0,0,453.14,119c-2.76,3.7-8.139,4.384-11.421,7.628a9.628,9.628,0,0,0-1.776,2.422,18.128,18.128,0,0,0-6.833,14.192,18.324,18.324,0,0,0,.131,2.154,4.971,4.971,0,0,0-.208,1.451c0,1.423.545,2.605,1.265,2.858a18.064,18.064,0,0,0,1.083,2.332,16.722,16.722,0,0,0,10.032,10.551v5.1c0,.039,0,.078,0,.117-6.721.907-15.691,5.1-17.247,10.844-1.344,4.96-2.778,10.407-3.491,13.605,6.116,4.3,18.95,6.821,26.993,6.821,7.642,0,20.132-2.278,26.068-6.191C477.1,189.367,475.617,183.68,474.215,178.592Z" transform="translate(-424.678 -119)" fill="url(#linear-gradient)"/>
    </g>
    <path id="Path_1283" data-name="Path 1283" d="M456.935,469.807c7.372,0,19.421-2.2,25.147-5.972-.62-3.39-2.047-8.875-3.4-13.784-1.722-6.252-12.593-10.586-19.078-10.586h-6.249c-6.5,0-17.391,4.359-19.092,10.638-1.3,4.785-2.679,10.039-3.368,13.124C436.8,467.373,449.176,469.807,456.935,469.807Z" transform="translate(-1158.09 -1749.151)" fill="#26b0e2"/>
    <circle id="Ellipse_383" data-name="Ellipse 383" cx="17.524" cy="17.524" r="17.524" transform="translate(-719.06 -1350.724)" fill="#72351c"/>
    <path id="Path_1284" data-name="Path 1284" d="M449.291,261.311H460.52v8.983a5.614,5.614,0,0,1-5.614,5.614h0a5.614,5.614,0,0,1-5.614-5.614v-8.983Z" transform="translate(-1156.483 -1579.915)" opacity="0.1"/>
    <path id="Path_1285" data-name="Path 1285" d="M450.9,258.553h8.007a1.611,1.611,0,0,1,1.611,1.611v7.372a5.614,5.614,0,0,1-5.614,5.614h0a5.614,5.614,0,0,1-5.614-5.614v-7.372A1.611,1.611,0,0,1,450.9,258.553Z" transform="translate(-1156.483 -1577.572)" fill="#fda57d"/>
    <path id="Path_1286" data-name="Path 1286" d="M563.709,400.839a16.16,16.16,0,0,0,11.229.031V399.49H563.709Z" transform="translate(-1270.88 -1715.203)" opacity="0.1"/>
    <circle id="Ellipse_384" data-name="Ellipse 384" cx="16.094" cy="16.094" r="16.094" transform="translate(-717.63 -1345.801)" fill="#fda57d"/>
    <path id="Path_1287" data-name="Path 1287" d="M525.046,186.755s6.783,13.768,25.917,5.77l-4.454-6.985-7.9-2.835Z" transform="translate(-1238.046 -1531.101)" opacity="0.1"/>
    <path id="Path_1288" data-name="Path 1288" d="M525.046,185.412s6.783,13.768,25.917,5.77l-4.454-6.985-7.9-2.835Z" transform="translate(-1238.046 -1529.96)" fill="#72351c"/>
    <path id="Path_1289" data-name="Path 1289" d="M522.754,139.49a9.3,9.3,0,0,1,2.3-3.748c3.166-3.129,8.356-3.79,11.018-7.358a2.084,2.084,0,0,1-.954,2.939c2.547-.017,5.506-.24,6.948-2.34a4.77,4.77,0,0,1-.8,5.037c2.261.1,4.673,1.637,4.819,3.895A4.5,4.5,0,0,1,544,141.706a11.574,11.574,0,0,1-4.2,1.583C535.5,144.237,519.95,148.209,522.754,139.49Z" transform="translate(-1235.815 -1484.969)" fill="#72351c"/>
    <path id="Path_1290" data-name="Path 1290" d="M526.56,307.6h-.427l-8.3,7.39c-8-3.746-13.869,0-13.869,0l-8.706-7.087-.878.11a16.093,16.093,0,1,0,32.184-.414Zm-16.118,10.225c-3.131,0-5.669-.635-5.669-1.417s2.538-1.417,5.669-1.417,5.669.635,5.669,1.417S513.573,317.827,510.441,317.827Z" transform="translate(-1212.002 -1637.168)" fill="#72351c"/>
    <ellipse id="Ellipse_385" data-name="Ellipse 385" cx="1.497" cy="2.807" rx="1.497" ry="2.807" transform="translate(-719.134 -1332.529)" fill="#fda57d"/>
    <ellipse id="Ellipse_386" data-name="Ellipse 386" cx="1.497" cy="2.807" rx="1.497" ry="2.807" transform="translate(-686.941 -1332.529)" fill="#fda57d"/>
    <g id="Group_1243" data-name="Group 1243" transform="translate(-732.842 -1301.056)" opacity="0.7">
      <rect id="Rectangle_409" data-name="Rectangle 409" width="62.284" height="35.866" rx="14.5" transform="translate(0 0)" fill="url(#linear-gradient)"/>
    </g>
    <rect id="Rectangle_410" data-name="Rectangle 410" width="60.028" height="35.204" rx="2" transform="translate(-731.714 -1300.394)" fill="#535461"/>
    <circle id="Ellipse_387" data-name="Ellipse 387" cx="2.031" cy="2.031" r="2.031" transform="translate(-703.731 -1284.823)" fill="#fff"/>
  </g>
</svg>
