<svg id="undraw_business_shop_qw5t" xmlns="http://www.w3.org/2000/svg" width="376" height="302.933" viewBox="0 0 376 302.933">
  <ellipse id="Ellipse_366" data-name="Ellipse 366" cx="185.767" cy="14.513" rx="185.767" ry="14.513" transform="translate(4.466 273.907)" fill="#3f3d56"/>
  <path id="Path_1178" data-name="Path 1178" d="M766.422,583.342l1.741,12.768-12.188,1.161,1.741-15.67Z" transform="translate(-418.39 -321.884)" fill="#a0616a"/>
  <path id="Path_1179" data-name="Path 1179" d="M814.676,303.812s1.161,15.67,1.161,16.25-8.125,40.626-8.125,40.626-11.608,22.054,0,21.474,8.125-20.893,8.125-20.893l12.188-33.662-5.223-23.8Z" transform="translate(-524.102 -217.627)" fill="#a0616a"/>
  <path id="Path_1180" data-name="Path 1180" d="M691.433,583.342l-1.741,12.768,12.188,1.161-1.741-15.67Z" transform="translate(-381.706 -321.884)" fill="#a0616a"/>
  <path id="Path_1181" data-name="Path 1181" d="M838.143,424.984l-2.9,4.063s-1.741,17.411,0,23.215,5.223,32.5,5.223,34.242.58,2.9,0,3.482-2.322.58-1.161,1.741,1.161,4.643,1.161,4.643v2.9l7.545,42.948s-4.643,5.223-1.161,5.223,16.25,0,15.67-5.8l-1.161-.58s-1.741-38.3-1.161-40.046,0-5.223,0-5.223-1.161-1.741,0-2.322,1.161-5.223,1.161-5.223l5.223-35.4s4.643,23.8,7.545,26.117,2.321,8.125,2.321,8.125l2.322,51.073s-2.322,5.8,0,6.964,12.188,5.223,12.768-.58,3.482-56.3,3.482-58.618-.58-3.482,0-5.223-.58-1.741,0-1.741-1.161-1.741-1.161-2.9V447.619s.58-5.8,1.161-6.964-.58-2.322,0-4.063-1.161-7.545-1.161-7.545l-26.117-6.965Z" transform="translate(-541.764 -283.083)" fill="#2f2e41"/>
  <path id="Path_1182" data-name="Path 1182" d="M867.749,716.11s2.9-2.9-1.161-2.9a18.891,18.891,0,0,0-7.545,1.741l-2.9,10.447s-11.9,9.576,1.451,8.416,11.317-.29,11.317-.29,4.063-1.161,4.643-2.321-1.161-17.992-1.161-17.992S870.651,717.851,867.749,716.11Z" transform="translate(-551.058 -444.204)" fill="#2f2e41"/>
  <path id="Path_1183" data-name="Path 1183" d="M934.641,716.11s-2.9-2.9,1.161-2.9a18.89,18.89,0,0,1,7.545,1.741l2.9,10.447s11.9,9.576-1.451,8.415-13.058-.29-13.058-.29-4.063-1.161-4.643-2.321,2.9-17.992,2.9-17.992S931.739,717.851,934.641,716.11Z" transform="translate(-592.993 -444.204)" fill="#2f2e41"/>
  <circle id="Ellipse_367" data-name="Ellipse 367" cx="15.09" cy="15.09" r="15.09" transform="translate(288.833 10.157)" fill="#a0616a"/>
  <path id="Path_1184" data-name="Path 1184" d="M847.9,184.848s2.321,11.607,2.321,13.349,9.866,6.964,9.866,6.964l11.027-13.929s-6.964-9.866-6.964-12.188Z" transform="translate(-549.197 -148.575)" fill="#a0616a"/>
  <path id="Path_1185" data-name="Path 1185" d="M839.339,210.773s-5.058-1.346-6.592-3.575c0,0-16.043,15.763-16.043,18.665L829.473,248.5s0,8.125,1.161,8.706,0,0,0,2.322-3.482,17.411-2.321,19.733,2.321.58,1.161,4.063-4.063,22.054-4.063,22.054,10.447-3.482,25.536,2.322,33.081-2.322,33.081-2.322-4.643-10.447-3.482-13.929-2.9-9.866-2.9-9.866l-2.9-53.394s4.063-23.8,1.161-24.956l-5.8-2.322-18.586-2.284S846.884,210.193,839.339,210.773Z" transform="translate(-531.934 -159.41)" fill="#d0cde1"/>
  <path id="Path_1186" data-name="Path 1186" d="M820.91,250.526l-5.8,4.063s-2.9,8.706,0,12.768a29.763,29.763,0,0,1,4.063,9.866l11.607-1.161Z" transform="translate(-530.336 -188.136)" fill="#d0cde1"/>
  <path id="Path_1187" data-name="Path 1187" d="M827.507,120.111l-2.617-1.048s5.473-6.025,13.088-5.5l-2.142-2.358s5.235-2.1,9.994,3.406c2.5,2.892,5.4,6.291,7.2,10.121h2.8l-1.17,2.576,4.095,2.576-4.2-.463a14.254,14.254,0,0,1-.4,6.672l.113,2.036s-4.872-7.538-4.872-8.585v2.62s-2.618-2.358-2.618-3.93l-1.428,1.834-.714-2.882-8.8,2.882,1.428-2.358-5.473.786,2.142-2.882s-6.187,3.406-6.425,6.287-3.331,6.549-3.331,6.549l-1.428-2.62S820.606,124.04,827.507,120.111Z" transform="translate(-535.105 -110.812)" fill="#2f2e41"/>
  <rect id="Rectangle_221" data-name="Rectangle 221" width="230.629" height="162.01" transform="translate(65.273 126.3)" fill="#f2f2f2"/>
  <rect id="Rectangle_222" data-name="Rectangle 222" width="57.908" height="101.089" transform="translate(84.687 188.114)" fill="#3f3d56"/>
  <rect id="Rectangle_223" data-name="Rectangle 223" width="15.599" height="14.541" transform="translate(95.398 194.179)" fill="#f2f2f2"/>
  <rect id="Rectangle_224" data-name="Rectangle 224" width="15.599" height="14.541" transform="translate(116.285 194.179)" fill="#f2f2f2"/>
  <rect id="Rectangle_225" data-name="Rectangle 225" width="15.599" height="15.07" transform="translate(95.398 214.008)" fill="#f2f2f2"/>
  <rect id="Rectangle_226" data-name="Rectangle 226" width="15.599" height="15.07" transform="translate(116.285 214.008)" fill="#f2f2f2"/>
  <circle id="Ellipse_368" data-name="Ellipse 368" cx="3.682" cy="3.682" r="3.682" transform="translate(131.549 241.782)" fill="#26b0e2"/>
  <rect id="Rectangle_227" data-name="Rectangle 227" width="114.478" height="96.068" transform="translate(162.01 178.518)" fill="#3f3d56"/>
  <path id="Path_1188" data-name="Path 1188" d="M371.03,254.789H92.2L110.79,215.92l4.161-8.7,5.443-11.381,4.161-8.7,4.823-10.082H349.062l2.849,10.082,2.46,8.7,3.217,11.381,2.46,8.7Z" transform="translate(-51.027 -97.988)" fill="#3f3d56"/>
  <rect id="Rectangle_228" data-name="Rectangle 228" width="4.017" height="24.77" transform="translate(166.027 218.351)" fill="#26b0e2"/>
  <rect id="Rectangle_229" data-name="Rectangle 229" width="4.017" height="3.013" transform="translate(166.027 222.033)" fill="#f2f2f2"/>
  <rect id="Rectangle_230" data-name="Rectangle 230" width="4.017" height="3.013" transform="translate(166.027 236.427)" fill="#f2f2f2"/>
  <rect id="Rectangle_231" data-name="Rectangle 231" width="9.707" height="24.77" transform="translate(172.052 218.351)" fill="#26b0e2"/>
  <rect id="Rectangle_232" data-name="Rectangle 232" width="9.707" height="3.013" transform="translate(172.052 222.033)" fill="#f2f2f2"/>
  <rect id="Rectangle_233" data-name="Rectangle 233" width="9.707" height="3.013" transform="translate(172.052 236.427)" fill="#f2f2f2"/>
  <rect id="Rectangle_234" data-name="Rectangle 234" width="4.017" height="24.77" transform="translate(184.102 218.351)" fill="#26b0e2"/>
  <rect id="Rectangle_235" data-name="Rectangle 235" width="4.017" height="3.013" transform="translate(184.102 222.033)" fill="#f2f2f2"/>
  <rect id="Rectangle_236" data-name="Rectangle 236" width="4.017" height="3.013" transform="translate(184.102 236.427)" fill="#f2f2f2"/>
  <rect id="Rectangle_237" data-name="Rectangle 237" width="4.017" height="24.77" transform="translate(190.127 218.351)" fill="#26b0e2"/>
  <rect id="Rectangle_238" data-name="Rectangle 238" width="4.017" height="3.013" transform="translate(190.127 222.033)" fill="#f2f2f2"/>
  <rect id="Rectangle_239" data-name="Rectangle 239" width="4.017" height="3.013" transform="translate(190.127 236.427)" fill="#f2f2f2"/>
  <rect id="Rectangle_240" data-name="Rectangle 240" width="4.017" height="24.77" transform="translate(194.258 219.855) rotate(-20.654)" fill="#26b0e2"/>
  <rect id="Rectangle_241" data-name="Rectangle 241" width="4.017" height="3.013" transform="translate(195.557 223.301) rotate(-20.654)" fill="#f2f2f2"/>
  <rect id="Rectangle_242" data-name="Rectangle 242" width="4.017" height="3.013" transform="translate(200.634 236.769) rotate(-20.654)" fill="#f2f2f2"/>
  <rect id="Rectangle_243" data-name="Rectangle 243" width="9.707" height="24.77" transform="translate(263.099 218.351)" fill="#26b0e2"/>
  <rect id="Rectangle_244" data-name="Rectangle 244" width="9.707" height="3.013" transform="translate(263.099 222.033)" fill="#f2f2f2"/>
  <rect id="Rectangle_245" data-name="Rectangle 245" width="9.707" height="3.013" transform="translate(263.099 236.427)" fill="#f2f2f2"/>
  <rect id="Rectangle_246" data-name="Rectangle 246" width="4.017" height="24.77" transform="translate(256.739 218.351)" fill="#26b0e2"/>
  <rect id="Rectangle_247" data-name="Rectangle 247" width="4.017" height="3.013" transform="translate(256.739 222.033)" fill="#f2f2f2"/>
  <rect id="Rectangle_248" data-name="Rectangle 248" width="4.017" height="3.013" transform="translate(256.739 236.427)" fill="#f2f2f2"/>
  <rect id="Rectangle_249" data-name="Rectangle 249" width="4.017" height="24.77" transform="translate(250.714 218.351)" fill="#26b0e2"/>
  <rect id="Rectangle_250" data-name="Rectangle 250" width="4.017" height="3.013" transform="translate(250.714 222.033)" fill="#f2f2f2"/>
  <rect id="Rectangle_251" data-name="Rectangle 251" width="4.017" height="3.013" transform="translate(250.714 236.427)" fill="#f2f2f2"/>
  <rect id="Rectangle_252" data-name="Rectangle 252" width="24.77" height="4.017" transform="translate(238.108 241.617) rotate(-69.346)" fill="#26b0e2"/>
  <rect id="Rectangle_253" data-name="Rectangle 253" width="3.013" height="4.017" transform="translate(244.484 224.703) rotate(-69.346)" fill="#f2f2f2"/>
  <rect id="Rectangle_254" data-name="Rectangle 254" width="3.013" height="4.017" transform="translate(239.407 238.172) rotate(-69.346)" fill="#f2f2f2"/>
  <rect id="Rectangle_255" data-name="Rectangle 255" width="114.478" height="2.343" transform="translate(162.01 243.121)" fill="#f2f2f2"/>
  <rect id="Rectangle_256" data-name="Rectangle 256" width="21.088" height="24.77" transform="translate(211.885 218.351)" fill="#26b0e2"/>
  <rect id="Rectangle_257" data-name="Rectangle 257" width="10.711" height="4.686" transform="translate(217.073 223.707)" fill="#f2f2f2"/>
  <rect id="Rectangle_258" data-name="Rectangle 258" width="2.008" height="21.423" transform="translate(218.245 178.518)" fill="#f2f2f2"/>
  <circle id="Ellipse_369" data-name="Ellipse 369" cx="3.347" cy="3.347" r="3.347" transform="translate(215.902 196.594)" fill="#f2f2f2"/>
  <path id="Path_1189" data-name="Path 1189" d="M389.313,208.331H155.337l4.161-8.7H386.853Z" transform="translate(-85.97 -110.483)" fill="#26b0e2"/>
  <path id="Path_1190" data-name="Path 1190" d="M383.088,253.306H133.831l4.161-8.7H380.628Z" transform="translate(-74.068 -135.374)" fill="#26b0e2"/>
  <path id="Path_1191" data-name="Path 1191" d="M855.183,262.223s-3.361,8.642-2.659,17.193a9.062,9.062,0,0,0,1.5,4.281h0l-41.174,19.548s-18.6,1.926-13.961,10.051,21.474-4.063,21.474-4.063,44.108-6.384,47.591-12.768,5.8-33.081,5.8-33.081Z" transform="translate(-521.661 -194.609)" fill="#a0616a"/>
  <path id="Path_1192" data-name="Path 1192" d="M924.741,208.937h8.706s6.384,1.161,8.125,12.768,3.482,14.509,1.741,14.509-22.635-.58-22.635-1.161S924.741,208.937,924.741,208.937Z" transform="translate(-589.478 -165.118)" fill="#d0cde1"/>
  <circle id="Ellipse_370" data-name="Ellipse 370" cx="44.656" cy="44.656" r="44.656" transform="translate(0 127.883)" fill="#26b0e2"/>
  <circle id="Ellipse_371" data-name="Ellipse 371" cx="38.404" cy="38.404" r="38.404" transform="translate(6.252 134.135)" opacity="0.1"/>
  <path id="Path_1193" data-name="Path 1193" d="M265.642,491.624v-5.59a12.979,12.979,0,0,1-7.454-2.435l1.169-3.708a11.914,11.914,0,0,0,7.015,2.379c3.459,0,5.8-2.269,5.8-5.423,0-3.044-1.9-4.925-5.5-6.586-4.969-2.214-8.038-4.759-8.038-9.574a8.7,8.7,0,0,1,7.356-8.91v-5.59H269v5.368a11.853,11.853,0,0,1,6.333,1.937l-1.218,3.653a10.765,10.765,0,0,0-6.138-1.882c-3.751,0-5.164,2.546-5.164,4.759,0,2.878,1.8,4.317,6.041,6.309,5.018,2.324,7.551,5.2,7.551,10.127a9.261,9.261,0,0,1-7.7,9.408v5.756Z" transform="translate(-222.826 -296.424)" fill="#f2f2f2"/>
</svg>
