<svg xmlns="http://www.w3.org/2000/svg" xmlns:xlink="http://www.w3.org/1999/xlink" width="118" height="86.195" viewBox="0 0 118 86.195">
  <defs>
    <linearGradient id="linear-gradient" x1="0.5" y1="1" x2="0.5" gradientUnits="objectBoundingBox">
      <stop offset="0.01" stop-color="gray" stop-opacity="0.251"/>
      <stop offset="0.54" stop-color="gray" stop-opacity="0.122"/>
      <stop offset="1" stop-color="gray" stop-opacity="0.102"/>
    </linearGradient>
  </defs>
  <g id="undraw_chat_1wo5" transform="translate(-0.05)">
    <path id="Path_1208" data-name="Path 1208" d="M559.221,290.82h-58.59a10.472,10.472,0,0,0-10.421,10.521v36.418a4.924,4.924,0,0,0,4.9,4.948h37.208a18.414,18.414,0,0,0,12.173,12.826l-2.209-12.826h16.939a4.924,4.924,0,0,0,4.9-4.948V295.768A4.924,4.924,0,0,0,559.221,290.82Z" transform="translate(-446.072 -269.338)" fill="url(#linear-gradient)"/>
    <path id="Path_1209" data-name="Path 1209" d="M564.847,299.86H507.975a10.115,10.115,0,0,0-10.115,10.115v35.011a4.753,4.753,0,0,0,4.753,4.753H538.73a17.775,17.775,0,0,0,11.814,12.33l-2.15-12.326H564.84a4.753,4.753,0,0,0,4.753-4.753V304.617A4.753,4.753,0,0,0,564.847,299.86Z" transform="translate(-452.684 -277.151)" fill="#fafafa"/>
    <rect id="Rectangle_266" data-name="Rectangle 266" width="29.396" height="3.675" transform="translate(68.046 31.798)" fill="#e0e0e0"/>
    <rect id="Rectangle_267" data-name="Rectangle 267" width="11.024" height="3.675" transform="translate(86.252 38.582)" fill="#e0e0e0"/>
    <rect id="Rectangle_268" data-name="Rectangle 268" width="21.738" height="3.675" transform="translate(75.369 45.365)" fill="#e0e0e0"/>
    <rect id="Rectangle_269" data-name="Rectangle 269" width="26.659" height="3.675" transform="translate(70.282 52.15)" fill="#e0e0e0"/>
    <rect id="Rectangle_270" data-name="Rectangle 270" width="14.056" height="3.675" transform="translate(82.718 58.933)" fill="#e0e0e0"/>
    <path id="Path_1210" data-name="Path 1210" d="M170.415,132.63h63.744a4.907,4.907,0,0,1,4.872,4.942v41.938a4.907,4.907,0,0,1-4.872,4.942H197.167a18.363,18.363,0,0,1-12.1,12.81l2.2-12.81H170.422a4.907,4.907,0,0,1-4.872-4.942V137.569A4.9,4.9,0,0,1,170.415,132.63Z" transform="translate(-165.5 -132.63)" fill="url(#linear-gradient)"/>
    <path id="Path_1211" data-name="Path 1211" d="M176.523,142.1h62.226a4.753,4.753,0,0,1,4.753,4.753v40.373a4.753,4.753,0,0,1-4.753,4.753H202.639a17.775,17.775,0,0,1-11.814,12.33l2.144-12.33H176.523a4.753,4.753,0,0,1-4.753-4.753V146.857A4.753,4.753,0,0,1,176.523,142.1Z" transform="translate(-170.875 -140.814)" fill="#fff"/>
    <rect id="Rectangle_271" data-name="Rectangle 271" width="29.396" height="3.675" transform="translate(22.064 9.045)" fill="#26b0e2"/>
    <rect id="Rectangle_272" data-name="Rectangle 272" width="11.024" height="3.675" transform="translate(22.231 15.828)" fill="#26b0e2"/>
    <rect id="Rectangle_273" data-name="Rectangle 273" width="21.738" height="3.675" transform="translate(22.398 22.611)" fill="#26b0e2"/>
    <rect id="Rectangle_274" data-name="Rectangle 274" width="26.659" height="3.675" transform="translate(22.565 29.396)" fill="#26b0e2"/>
    <rect id="Rectangle_275" data-name="Rectangle 275" width="14.056" height="3.675" transform="translate(22.732 36.179)" fill="#26b0e2"/>
  </g>
</svg>
