<svg xmlns="http://www.w3.org/2000/svg" viewBox="0 0 296.98 73.78"><defs><style>.cls-1{fill:#414042;}.cls-2{fill:#5ed4fa;}</style></defs><title>資產 2</title><g id="圖層_2" data-name="圖層 2"><g id="size_proportion" data-name="size&amp;proportion"><path class="cls-1" d="M237.88,66.09l3.49,0a11.85,11.85,0,0,0,1.7-.06l0,1.52a11.59,11.59,0,0,0-1.68-.11l-4,0v1l4.46.05a14,14,0,0,0,2-.07l0,1.77a16.56,16.56,0,0,0-2-.12L237.37,70l0,1.27a9.56,9.56,0,0,0,.08,1.78l-2,0a9,9,0,0,0,.12-1.75l0-1.29L231.26,70a14.54,14.54,0,0,0-2,.07l0-1.78a13.69,13.69,0,0,0,2,.13l4.34.05v-1l-3.17,0c-.47,0-.72,0-1.35,0,0-.34.06-.73.07-1.28l0-2.36a10.92,10.92,0,0,1,.08-1.45,7.35,7.35,0,0,1-1.47,1.38,6.59,6.59,0,0,0-.87-1.54,10.62,10.62,0,0,0,3.13-3.36,3.89,3.89,0,0,0,.47-1l1.82.36-.42.71a4.82,4.82,0,0,1-.44.7l2.78,0a7.64,7.64,0,0,0,.85-1.69l1.8.31c-.25.46-.53.94-.83,1.41l3.19,0a11.9,11.9,0,0,0,1.66-.06l0,1.58a10,10,0,0,0-1.42-.09l-3.58,0v.88l2.82,0a9.72,9.72,0,0,0,1.56-.06l0,1.35a12.46,12.46,0,0,0-1.56-.08l-2.81,0,0,.89,2.8,0a9.49,9.49,0,0,0,1.56-.06V65.3a10.26,10.26,0,0,0-1.56-.09l-2.8,0Zm-5-1V66l3.33,0v-.91Zm3.36-2L232.91,63v.9l3.33,0Zm0-2.08-3.34,0v.88l3.34,0Z"/><path class="cls-1" d="M246.58,71.21a6.33,6.33,0,0,0,1.06-1.65,10.4,10.4,0,0,0,.77-2.43l1.65.56a12.26,12.26,0,0,1-1.95,4.66Zm13.5-6.41a12.56,12.56,0,0,0,.05,1.59c-.51,0-1-.08-1.68-.09l-8.57-.11c-.6,0-1.19,0-1.66,0a14.61,14.61,0,0,0,.09-1.6l.05-4.22a16.7,16.7,0,0,0,0-1.7,11.22,11.22,0,0,0,1.67.11l8.54.11a11.31,11.31,0,0,0,1.69-.06,16.5,16.5,0,0,0-.08,1.69Zm-10-1.6,0,1.53,3.25,0,0-1.53Zm0-2.86,0,1.5,3.25,0,0-1.5Zm2.43,10.34c0,.52.29.63,2,.65,1.48,0,2-.07,2.25-.38a4,4,0,0,0,.25-1.74,5.52,5.52,0,0,0,1.7.58c-.17,1.69-.34,2.34-.74,2.66s-1.52.53-3.61.5c-3.08,0-3.63-.29-3.61-1.67l0-2.57a6.71,6.71,0,0,0-.08-1.55l1.94,0a8.6,8.6,0,0,0-.1,1.54Zm2.73-.61a12.27,12.27,0,0,0-2.05-2.89l1.32-.81a15.11,15.11,0,0,1,2.14,2.71Zm3.09-5.23,0-1.53-3.38,0,0,1.52Zm0-2.9,0-1.49L255,60.4v1.5Zm1.8,10.34A16.83,16.83,0,0,0,258,67.83l1.39-.72a22.21,22.21,0,0,1,2.4,4.3Z"/><path class="cls-1" d="M267.06,61c-.67.13-.94.15-1.91.27a5,5,0,0,0-.59-1.57,14.11,14.11,0,0,0,5.56-1.31l1,1.51-.26.11c-.44.17-1.24.42-2.06.64l0,2h.9a5.9,5.9,0,0,0,1.2-.06l0,1.74a7.19,7.19,0,0,0-1.23-.1h-.78A7,7,0,0,0,271,66.81a5.51,5.51,0,0,0-.9,1.58,7,7,0,0,1-1.5-2.25c0,.41,0,1.12.05,2.12l0,3.18a14.68,14.68,0,0,0,.07,2l-1.92,0a15.44,15.44,0,0,0,.13-2l0-2.63c0-.38,0-.85.13-2.07a11.42,11.42,0,0,1-2,3.64,5.93,5.93,0,0,0-.94-1.71A9.86,9.86,0,0,0,266,66a11.36,11.36,0,0,0,.81-1.83H266a9,9,0,0,0-1.43.08l0-1.77a7.71,7.71,0,0,0,1.47.12h1Zm8.86-.57a10.56,10.56,0,0,0-.08-1.88l2,0a11.25,11.25,0,0,0-.12,1.87l-.09,7a8.13,8.13,0,0,0,1.54-.42l.12,1.91a11.9,11.9,0,0,0-1.55.25l-.13,0,0,2.43a11.57,11.57,0,0,0,.07,1.92l-2,0a11.32,11.32,0,0,0,.12-1.93l0-2-3.67.77c-.64.14-1.17.28-1.58.38l-.19-1.89h.08a8.69,8.69,0,0,0,1.45-.21l3.93-.83Zm-4,3A21.69,21.69,0,0,1,275,66l-1,1.43a15.14,15.14,0,0,0-3.06-2.7Zm.6-4.06A16.2,16.2,0,0,1,275.62,62l-1.12,1.45a14.13,14.13,0,0,0-3-2.72Z"/><path class="cls-1" d="M283.33,63.18a8.26,8.26,0,0,0-1.25.06l0-1.76a7.51,7.51,0,0,0,1.27.12H284V60.27a11.52,11.52,0,0,0-.07-1.66l1.93,0a10.41,10.41,0,0,0-.12,1.64v1.35H286a6.18,6.18,0,0,0,1-.05l0,1.71a5.51,5.51,0,0,0-1-.08h-.24l0,2.48c.49-.17.69-.23,1.38-.48l0,1.61c-.85.31-.85.31-1.38.52L285.64,72c0,1.3-.44,1.6-2.16,1.58-.39,0-.65,0-1.16-.06a4.89,4.89,0,0,0-.37-1.7,8.75,8.75,0,0,0,1.32.15c.54,0,.64-.06.64-.5L284,68l-.45.16a4,4,0,0,1-.55.17c-.23.08-.51.17-.69.25l-.33-1.81a11.56,11.56,0,0,0,2-.46l0-3.08Zm7.4-.72-1.53,0c-.75,0-1.4,0-1.87.05l0-1.77a15.59,15.59,0,0,0,1.85.11l1.55,0v-.49a9.82,9.82,0,0,0-.07-1.65l1.93,0a11.69,11.69,0,0,0-.1,1.63v.5l2.26,0a14.38,14.38,0,0,0,1.85-.08l0,1.81a17.45,17.45,0,0,0-1.86-.12l-2.26,0,0,2.08,1.53,0a6.58,6.58,0,0,0,1.17,0l.85.94c-.13.21-.2.34-.52,1A13.92,13.92,0,0,1,292.91,70,12.94,12.94,0,0,0,297,72a5.74,5.74,0,0,0-1,1.76,16.1,16.1,0,0,1-4.36-2.67,14.14,14.14,0,0,1-4.75,2.5,6.18,6.18,0,0,0-.89-1.68,12.81,12.81,0,0,0,4.44-2,11.9,11.9,0,0,1-2.25-3.81l-.65,0,0-1.72a13.43,13.43,0,0,0,1.65.12l1.54,0Zm-.8,3.63a8.49,8.49,0,0,0,1.74,2.76,8.73,8.73,0,0,0,2.07-2.71Z"/><path class="cls-1" d="M128.48,5a13.12,13.12,0,0,1,6.76,5,17.55,17.55,0,0,1,2.82,6.4,30.2,30.2,0,0,1,.76,6.56,26.3,26.3,0,0,1-3.18,13.39q-4.3,7.39-13.29,7.39H105.26V4.12h17.09A20.86,20.86,0,0,1,128.48,5ZM113.3,11V36.87H121q5.86,0,8.19-5.78a20.49,20.49,0,0,0,1.26-7.56q0-6-1.9-9.29T121,11Z"/><path class="cls-1" d="M145.57,49.37l1,.05a11.63,11.63,0,0,0,2.15-.08,3.71,3.71,0,0,0,1.72-.62,4.14,4.14,0,0,0,1.26-1.9,4.51,4.51,0,0,0,.49-1.78l-10.77-30.6h8.53l6.4,21.62,6.05-21.62h8.14l-10,28.83q-2.93,8.32-4.61,10.33t-6.79,2l-1.64,0c-.41,0-1,0-1.85-.09Z"/><path class="cls-1" d="M211.6,14.55A8.48,8.48,0,0,1,215,17.19,8.36,8.36,0,0,1,216.68,21a26,26,0,0,1,.27,4.33l0,18.47H209V25.09a6.25,6.25,0,0,0-.53-2.74,3.83,3.83,0,0,0-3.77-2,4.4,4.4,0,0,0-4.38,2.63,8.3,8.3,0,0,0-.62,3.36V43.75H192V26.3a9.76,9.76,0,0,0-.54-3.79,3.76,3.76,0,0,0-3.79-2.12q-3.28,0-4.41,2.12a8.08,8.08,0,0,0-.62,3.6V43.75H174.9V14.5h7.45v4.27A12.49,12.49,0,0,1,185,15.52a9.21,9.21,0,0,1,5.79-1.72,9.11,9.11,0,0,1,5.43,1.48,8.56,8.56,0,0,1,2.52,3.52A9.8,9.8,0,0,1,202.51,15a11.36,11.36,0,0,1,5.27-1.21A10.27,10.27,0,0,1,211.6,14.55Z"/><path class="cls-1" d="M235.6,25.93a12,12,0,0,0,3.06-.68,2.3,2.3,0,0,0,1.65-2.17,2.58,2.58,0,0,0-1.26-2.49,8,8,0,0,0-3.72-.69q-2.76,0-3.9,1.35a5.47,5.47,0,0,0-1.09,2.69h-7.4a11.33,11.33,0,0,1,2.16-6.32q3.06-3.87,10.48-3.87a18.72,18.72,0,0,1,8.59,1.9q3.75,1.92,3.75,7.21V36.3c0,.94,0,2.06.06,3.39a4.18,4.18,0,0,0,.45,2,2.72,2.72,0,0,0,1.13.89v1.13h-8.33a8.13,8.13,0,0,1-.49-1.67q-.13-.78-.21-1.77a15.94,15.94,0,0,1-3.68,2.93,11.12,11.12,0,0,1-5.63,1.43,9.69,9.69,0,0,1-6.61-2.28A8.07,8.07,0,0,1,222,36q0-5.4,4.2-7.82A18.61,18.61,0,0,1,233,26.25Zm4.69,3.57a8.6,8.6,0,0,1-1.49.74,12.41,12.41,0,0,1-2.06.52l-1.74.33a11,11,0,0,0-3.52,1.05,3.48,3.48,0,0,0-1.81,3.25,3.4,3.4,0,0,0,1.1,2.84,4.23,4.23,0,0,0,2.69.87,8,8,0,0,0,4.63-1.45q2.11-1.45,2.2-5.3Z"/><path class="cls-1" d="M262.49,11h-7.77V3.88h7.77Zm-7.77,3.49h7.77V43.75h-7.77Z"/><path class="cls-1" d="M293.55,16.13q2.86,2.37,2.87,7.89V43.75h-7.85V25.93a8.15,8.15,0,0,0-.61-3.55q-1.12-2.26-4.27-2.26a5.29,5.29,0,0,0-5.31,3.3,11.45,11.45,0,0,0-.75,4.47V43.75H270V14.5h7.42v4.27a13.07,13.07,0,0,1,2.78-3.25,9.66,9.66,0,0,1,6-1.77A11.23,11.23,0,0,1,293.55,16.13Z"/><path class="cls-2" d="M71.84,13.63a.23.23,0,0,0,0-.16,7.48,7.48,0,0,0-1.92-2.41,27.65,27.65,0,0,0-5.48-4.15C55.2,1.45,44.24,1.13,33.79,1.54,22.66,2,12.58,2.23,1.56.24L.24,0A.21.21,0,0,0,.06.35,33.78,33.78,0,0,0,15.75,9.78c6.75,1.88,13.16,1.31,20,.72,10.28-.87,13.25.56,14.78,1.25A18.05,18.05,0,0,1,57,16.65,17.43,17.43,0,0,1,60.53,28.2a19,19,0,0,1-1.75,7,19.61,19.61,0,0,1-7.09,8.15c-.95.64-5,3.38-6.54,2.15a1.65,1.65,0,0,1-.57-1c-1.67-8.64-3.46-16.93-5.2-25.55a2.4,2.4,0,0,0-3-1.86c-8.91,2.37-18.55,5-27.78,2.87a.2.2,0,0,0-.24.26c.69,2.06,9,10.6,23.68,5.57a.2.2,0,0,1,.26.15l1.75,8.2c1.19,5.81,2.16,11.66,3.29,17.48.33,1.67.82,3.63,2.7,4.14,2.39.65,5.58-.53,7.79-1.28a43.26,43.26,0,0,0,6.53-3.09A36.9,36.9,0,0,0,71,35.08a.82.82,0,0,0,0-.76C69.88,32.49,66.09,24,71.84,13.63Z"/><path class="cls-2" d="M73.94,14.64c-.58,1.31-3.75,9.13-.07,16.48a.27.27,0,0,0,.34.14c1.68-.58,12.17-4,16.81-.78a.27.27,0,0,0,.42-.31c-1.07-3.2-5.52-13.91-17.2-15.7A.28.28,0,0,0,73.94,14.64Z"/></g></g></svg>